<svg width="25" height="24" viewBox="0 0 25 24" fill="none" xmlns="http://www.w3.org/2000/svg">
<path d="M15.125 12.0002C15.125 12.5194 14.971 13.0269 14.6826 13.4586C14.3942 13.8903 13.9842 14.2267 13.5045 14.4254C13.0249 14.6241 12.4971 14.6761 11.9879 14.5748C11.4787 14.4735 11.011 14.2235 10.6438 13.8564C10.2767 13.4893 10.0267 13.0216 9.92544 12.5124C9.82415 12.0032 9.87614 11.4754 10.0748 10.9957C10.2735 10.516 10.61 10.1061 11.0416 9.81764C11.4733 9.5292 11.9808 9.37524 12.5 9.37524C13.1962 9.37524 13.8639 9.65181 14.3562 10.1441C14.8484 10.6364 15.125 11.3041 15.125 12.0002ZM5 9.37524C4.48083 9.37524 3.97331 9.5292 3.54163 9.81764C3.10995 10.1061 2.7735 10.516 2.57482 10.9957C2.37614 11.4754 2.32415 12.0032 2.42544 12.5124C2.52673 13.0216 2.77673 13.4893 3.14385 13.8564C3.51096 14.2235 3.97869 14.4735 4.48789 14.5748C4.99709 14.6761 5.52489 14.6241 6.00455 14.4254C6.4842 14.2267 6.89417 13.8903 7.18261 13.4586C7.47105 13.0269 7.625 12.5194 7.625 12.0002C7.625 11.3041 7.34844 10.6364 6.85616 10.1441C6.36387 9.65181 5.69619 9.37524 5 9.37524ZM20 9.37524C19.4808 9.37524 18.9733 9.5292 18.5416 9.81764C18.11 10.1061 17.7735 10.516 17.5748 10.9957C17.3761 11.4754 17.3242 12.0032 17.4254 12.5124C17.5267 13.0216 17.7767 13.4893 18.1438 13.8564C18.511 14.2235 18.9787 14.4735 19.4879 14.5748C19.9971 14.6761 20.5249 14.6241 21.0045 14.4254C21.4842 14.2267 21.8942 13.8903 22.1826 13.4586C22.471 13.0269 22.625 12.5194 22.625 12.0002C22.625 11.6555 22.5571 11.3142 22.4252 10.9957C22.2933 10.6772 22.0999 10.3878 21.8562 10.1441C21.6124 9.90034 21.323 9.70698 21.0045 9.57506C20.6861 9.44314 20.3447 9.37524 20 9.37524Z" fill="black" fill-opacity="0.4"/>
</svg>
