<svg width="28" height="12" viewBox="0 0 28 12" fill="none" xmlns="http://www.w3.org/2000/svg">
<path d="M5.88414 2.05132C6.19513 1.66233 6.40616 1.14004 6.3505 0.606323C5.89526 0.62896 5.33971 0.906666 5.01808 1.29596C4.72929 1.62932 4.47369 2.17348 4.54032 2.68482C5.05136 2.72915 5.56193 2.42938 5.88414 2.05132Z" fill="#000008"/>
<path d="M6.34472 2.78467C5.60256 2.74046 4.97155 3.20588 4.61714 3.20588C4.26253 3.20588 3.7198 2.80695 3.1328 2.8177C2.36878 2.82892 1.65986 3.26091 1.27215 3.94796C0.474698 5.32242 1.0617 7.36121 1.83718 8.48063C2.21377 9.03444 2.66762 9.64422 3.26565 9.62232C3.83068 9.60015 4.05215 9.25645 4.73896 9.25645C5.42528 9.25645 5.62478 9.62232 6.2229 9.61123C6.84316 9.60014 7.23094 9.05715 7.60752 8.5028C8.03954 7.87148 8.21639 7.2619 8.22752 7.22844C8.21639 7.21735 7.03147 6.76278 7.02048 5.39976C7.0093 4.25847 7.95078 3.71561 7.99509 3.68195C7.46342 2.89561 6.63271 2.80695 6.34472 2.78467Z" fill="#000008"/>
<path d="M12.8068 1.24013C14.4198 1.24013 15.5431 2.35202 15.5431 3.97086C15.5431 5.59547 14.3967 6.71315 12.7663 6.71315H10.9804V9.55333H9.69001V1.24013L12.8068 1.24013ZM10.9804 5.63003H12.461C13.5844 5.63003 14.2238 5.02519 14.2238 3.97664C14.2238 2.92819 13.5844 2.32902 12.4667 2.32902H10.9804V5.63003Z" fill="#000008"/>
<path d="M15.8802 7.8308C15.8802 6.77069 16.6925 6.11973 18.1329 6.03906L19.7919 5.94116V5.47456C19.7919 4.80048 19.3368 4.39722 18.5765 4.39722C17.8562 4.39722 17.4068 4.74281 17.2974 5.28442H16.1222C16.1913 4.18975 17.1245 3.38322 18.6225 3.38322C20.0915 3.38322 21.0305 4.16097 21.0305 5.37655V9.55332H19.8379V8.55666H19.8093C19.4579 9.23073 18.6916 9.65699 17.8966 9.65699C16.7098 9.65699 15.8802 8.91958 15.8802 7.8308ZM19.7919 7.28352V6.80536L18.2998 6.89748C17.5566 6.94938 17.1361 7.27775 17.1361 7.79624C17.1361 8.32619 17.5739 8.67189 18.2422 8.67189C19.1121 8.67189 19.7919 8.07272 19.7919 7.28352Z" fill="#000008"/>
<path d="M22.1564 11.7829V10.7747C22.2484 10.7977 22.4558 10.7977 22.5595 10.7977C23.1356 10.7977 23.4467 10.5558 23.6368 9.93358C23.6368 9.92202 23.7463 9.56487 23.7463 9.5591L21.5572 3.49268H22.9051L24.4377 8.4242H24.4606L25.9932 3.49268H27.3067L25.0367 9.87013C24.5184 11.3393 23.9192 11.8117 22.6633 11.8117C22.5595 11.8117 22.2484 11.8001 22.1564 11.7829Z" fill="#000008"/>
</svg>
