<svg width="17" height="17" viewBox="0 0 17 17" fill="none" xmlns="http://www.w3.org/2000/svg">
<path d="M7.03061 2.9694L12.0306 7.9694C12.1005 8.03908 12.156 8.12187 12.1939 8.21304C12.2317 8.3042 12.2512 8.40194 12.2512 8.50065C12.2512 8.59936 12.2317 8.6971 12.1939 8.78827C12.156 8.87943 12.1005 8.96222 12.0306 9.0319L7.03061 14.0319C6.88972 14.1728 6.69862 14.252 6.49936 14.252C6.30011 14.252 6.10901 14.1728 5.96811 14.0319C5.82722 13.891 5.74806 13.6999 5.74806 13.5007C5.74806 13.3014 5.82722 13.1103 5.96811 12.9694L10.4375 8.50003L5.96749 4.03065C5.82659 3.88976 5.74744 3.69866 5.74744 3.4994C5.74744 3.30015 5.82659 3.10905 5.96749 2.96815C6.10838 2.82726 6.29948 2.7481 6.49874 2.7481C6.698 2.7481 6.88909 2.82726 7.02999 2.96815L7.03061 2.9694Z" fill="black" fill-opacity="0.6"/>
</svg>
