<svg width="207" height="35" viewBox="0 0 207 35" fill="none" xmlns="http://www.w3.org/2000/svg">
<path fill-rule="evenodd" clip-rule="evenodd" d="M16.8602 31.2781C9.6216 31.2781 3.44296 24.7126 3.44296 17.5514C3.44296 10.4166 9.49229 3.72072 16.8083 3.72072C21.6175 3.72072 25.0804 6.04738 27.8989 9.69267H31.4403C30.3803 7.77939 29.243 6.02196 27.5109 4.65138C24.5377 2.24735 20.6857 0.825928 16.8602 0.825928C7.6829 0.825928 0.212158 8.40057 0.212158 17.526C0.212158 26.6768 7.7868 34.174 16.9122 34.174C20.6348 34.174 24.2801 32.8046 27.2015 30.5033C29.0374 29.0299 30.3295 27.1167 31.5707 25.1514H28.0293C25.2362 28.7967 21.6694 31.2781 16.8602 31.2781ZM53.5696 13.8287C51.3468 10.9593 48.3216 9.14996 44.5735 9.14996C37.8522 9.14996 32.3201 14.6057 32.3201 21.3271C32.3201 28.0473 37.8787 33.554 44.5735 33.554C48.4774 33.554 51.191 31.9247 53.5696 28.9261V33.0101H56.4909V9.71809H53.5696V13.8287ZM44.4188 30.8648C39.2736 30.8648 35.2149 26.3927 35.2149 21.3525C35.2149 16.3366 39.2482 11.8392 44.4188 11.8392C49.5628 11.8392 53.5696 16.3377 53.5696 21.3525C53.5696 26.3927 49.5363 30.8648 44.4188 30.8648ZM60.0323 33.0101H63.1614V1.49685H60.0323V33.0101ZM74.9749 29.3129L67.0642 9.71809H63.9616L73.4496 33.0101H76.603L86.0655 9.71809H83.0149L74.9749 29.3129ZM87.3576 33.0101H90.4856V9.71809H87.3576V33.0101ZM87.3576 6.7194H90.4856V1.49685H87.3576V6.7194ZM103.955 9.14886C101.007 9.14886 98.9135 10.7007 96.9748 12.7687V9.71809H94.0789V33.0101H97.155V18.8169C97.1296 15.0689 100.231 11.8381 104.006 11.8381C108.735 11.8381 111.114 15.9487 111.114 20.1886V33.0113H114.009V20.1886C114.01 14.1393 110.469 9.14886 103.955 9.14886ZM143.042 1.49685L128.823 19.5674V1.49685H125.747V33.0101H128.823V24.3501L132.856 19.3353L143.119 33.0101H147.024L134.82 16.8528L147.024 1.49685H143.042ZM148.16 33.0101H151.212V1.49685H148.16V33.0101ZM176.468 15.5861C174.348 11.6303 170.108 9.14886 165.635 9.14886C158.967 9.14886 153.33 14.7074 153.33 21.3768C153.33 28.0971 159.018 33.5528 165.689 33.5528C168.867 33.5528 171.997 32.2862 174.296 30.0888C175.693 28.7702 176.52 27.1156 177.268 25.3836H173.987C172.331 28.6155 169.41 30.8636 165.634 30.8636C163.335 30.8636 161.086 29.933 159.38 28.3557C157.621 26.7541 156.846 24.7878 156.509 22.4622H177.994C177.995 20.0328 177.658 17.7061 176.468 15.5861ZM156.614 19.7741C157.547 15.406 160.983 11.8381 165.689 11.8381C169.644 11.8381 173.884 14.2686 174.815 19.7741H156.614ZM180.269 33.0101H183.344V9.71809H180.269V33.0101ZM180.269 6.8233H183.344V1.49685H180.269V6.8233ZM196.867 9.14886C193.866 9.14886 191.772 10.7007 189.807 12.7687V9.71809H186.86V33.0101H189.963V18.8169C189.937 15.0434 193.117 11.8381 196.916 11.8381C201.623 11.8381 204.105 15.9487 204.105 20.1886V33.0113H207V20.1886C207 14.1393 203.406 9.14886 196.867 9.14886Z" fill="white"/>
</svg>
