<svg width="25" height="24" viewBox="0 0 25 24" fill="none" xmlns="http://www.w3.org/2000/svg">
<path d="M13.625 11.6252V20.2502C13.625 20.5486 13.5065 20.8348 13.2955 21.0457C13.0845 21.2567 12.7984 21.3752 12.5 21.3752C12.2016 21.3752 11.9155 21.2567 11.7045 21.0457C11.4935 20.8348 11.375 20.5486 11.375 20.2502V11.6252C11.375 11.3269 11.4935 11.0407 11.7045 10.8297C11.9155 10.6188 12.2016 10.5002 12.5 10.5002C12.7984 10.5002 13.0845 10.6188 13.2955 10.8297C13.5065 11.0407 13.625 11.3269 13.625 11.6252ZM19.25 18.0002C18.9516 18.0002 18.6655 18.1188 18.4545 18.3297C18.2435 18.5407 18.125 18.8269 18.125 19.1252V20.2502C18.125 20.5486 18.2435 20.8348 18.4545 21.0457C18.6655 21.2567 18.9516 21.3752 19.25 21.3752C19.5484 21.3752 19.8345 21.2567 20.0455 21.0457C20.2565 20.8348 20.375 20.5486 20.375 20.2502V19.1252C20.375 18.8269 20.2565 18.5407 20.0455 18.3297C19.8345 18.1188 19.5484 18.0002 19.25 18.0002ZM21.5 14.2502H20.375V3.75024C20.375 3.45188 20.2565 3.16573 20.0455 2.95475C19.8345 2.74377 19.5484 2.62524 19.25 2.62524C18.9516 2.62524 18.6655 2.74377 18.4545 2.95475C18.2435 3.16573 18.125 3.45188 18.125 3.75024V14.2502H17C16.7016 14.2502 16.4155 14.3688 16.2045 14.5797C15.9935 14.7907 15.875 15.0769 15.875 15.3752C15.875 15.6736 15.9935 15.9598 16.2045 16.1707C16.4155 16.3817 16.7016 16.5002 17 16.5002H21.5C21.7984 16.5002 22.0845 16.3817 22.2955 16.1707C22.5065 15.9598 22.625 15.6736 22.625 15.3752C22.625 15.0769 22.5065 14.7907 22.2955 14.5797C22.0845 14.3688 21.7984 14.2502 21.5 14.2502ZM5.75 15.0002C5.45163 15.0002 5.16548 15.1188 4.9545 15.3297C4.74353 15.5407 4.625 15.8269 4.625 16.1252V20.2502C4.625 20.5486 4.74353 20.8348 4.9545 21.0457C5.16548 21.2567 5.45163 21.3752 5.75 21.3752C6.04837 21.3752 6.33452 21.2567 6.5455 21.0457C6.75647 20.8348 6.875 20.5486 6.875 20.2502V16.1252C6.875 15.8269 6.75647 15.5407 6.5455 15.3297C6.33452 15.1188 6.04837 15.0002 5.75 15.0002ZM8 11.2502H6.875V3.75024C6.875 3.45188 6.75647 3.16573 6.5455 2.95475C6.33452 2.74377 6.04837 2.62524 5.75 2.62524C5.45163 2.62524 5.16548 2.74377 4.9545 2.95475C4.74353 3.16573 4.625 3.45188 4.625 3.75024V11.2502H3.5C3.20163 11.2502 2.91548 11.3688 2.7045 11.5797C2.49353 11.7907 2.375 12.0769 2.375 12.3752C2.375 12.6736 2.49353 12.9598 2.7045 13.1707C2.91548 13.3817 3.20163 13.5002 3.5 13.5002H8C8.29837 13.5002 8.58452 13.3817 8.7955 13.1707C9.00647 12.9598 9.125 12.6736 9.125 12.3752C9.125 12.0769 9.00647 11.7907 8.7955 11.5797C8.58452 11.3688 8.29837 11.2502 8 11.2502ZM14.75 6.75024H13.625V3.75024C13.625 3.45188 13.5065 3.16573 13.2955 2.95475C13.0845 2.74377 12.7984 2.62524 12.5 2.62524C12.2016 2.62524 11.9155 2.74377 11.7045 2.95475C11.4935 3.16573 11.375 3.45188 11.375 3.75024V6.75024H10.25C9.95163 6.75024 9.66548 6.86877 9.4545 7.07975C9.24353 7.29073 9.125 7.57688 9.125 7.87524C9.125 8.17361 9.24353 8.45976 9.4545 8.67074C9.66548 8.88172 9.95163 9.00024 10.25 9.00024H14.75C15.0484 9.00024 15.3345 8.88172 15.5455 8.67074C15.7565 8.45976 15.875 8.17361 15.875 7.87524C15.875 7.57688 15.7565 7.29073 15.5455 7.07975C15.3345 6.86877 15.0484 6.75024 14.75 6.75024Z" fill="black"/>
</svg>
