<svg width="14" height="13" viewBox="0 0 14 13" fill="none" xmlns="http://www.w3.org/2000/svg">
<path fill-rule="evenodd" clip-rule="evenodd" d="M7.10685 0.196045C3.51591 0.196045 0.626953 3.085 0.626953 6.67594C0.626953 9.53789 2.48992 11.9679 5.05488 12.8318C5.37888 12.8858 5.48687 12.6968 5.48687 12.5078C5.48687 12.3459 5.48687 11.9409 5.48687 11.4009C3.6779 11.8059 3.29991 10.5369 3.29991 10.5369C3.00291 9.78089 2.57092 9.59189 2.57092 9.59189C1.97693 9.1869 2.62492 9.1869 2.62492 9.1869C3.27291 9.2409 3.62391 9.86189 3.62391 9.86189C4.1909 10.8609 5.13588 10.5639 5.51387 10.4019C5.56787 9.96989 5.72987 9.69989 5.91887 9.5379C4.48789 9.3759 2.97592 8.80891 2.97592 6.32495C2.97592 5.62296 3.21891 5.02897 3.6509 4.59697C3.59691 4.43498 3.35391 3.78699 3.7049 2.869C3.7049 2.869 4.24489 2.707 5.48687 3.54399C5.99987 3.40899 6.56686 3.32799 7.10685 3.32799C7.64684 3.32799 8.21383 3.40899 8.72682 3.54399C9.9688 2.707 10.5088 2.869 10.5088 2.869C10.8598 3.75999 10.6438 4.40798 10.5628 4.59697C10.9678 5.05597 11.2378 5.62296 11.2378 6.32495C11.2378 8.80891 9.72581 9.3489 8.26783 9.5109C8.51083 9.69989 8.69982 10.1049 8.69982 10.6989C8.69982 11.5629 8.69982 12.2649 8.69982 12.4808C8.69982 12.6428 8.80782 12.8588 9.15882 12.8048C11.7238 11.9679 13.5867 9.53789 13.5867 6.67594C13.5867 3.085 10.6978 0.196045 7.10685 0.196045Z" fill="black"/>
</svg>
