<svg width="30" height="13" viewBox="0 0 30 13" fill="none" xmlns="http://www.w3.org/2000/svg">
<path d="M14.251 9.58391H13.2025V1.42565H15.982C16.6864 1.42565 17.2871 1.66047 17.7785 2.13008C18.2809 2.5997 18.5321 3.17307 18.5321 3.8502C18.5321 4.5437 18.2809 5.11707 17.7785 5.58123C17.2925 6.04539 16.6919 6.27474 15.982 6.27474H14.251V9.58391ZM14.251 2.43042V5.27543H16.0038C16.4188 5.27543 16.7683 5.13345 17.0414 4.85496C17.3198 4.57647 17.4618 4.2379 17.4618 3.85566C17.4618 3.47887 17.3198 3.14577 17.0414 2.86727C16.7683 2.57786 16.4243 2.43588 16.0038 2.43588H14.251V2.43042Z" fill="#3C4043"/>
<path d="M21.2732 3.81743C22.0487 3.81743 22.6603 4.02494 23.108 4.43995C23.5558 4.85496 23.7797 5.42287 23.7797 6.14368V9.58391H22.7804V8.80849H22.7367C22.3053 9.44739 21.7265 9.76411 21.0057 9.76411C20.3886 9.76411 19.8753 9.5839 19.4603 9.21804C19.0453 8.85217 18.8378 8.39894 18.8378 7.85287C18.8378 7.27404 19.0562 6.81534 19.4931 6.47678C19.9299 6.13276 20.5142 5.96348 21.2405 5.96348C21.863 5.96348 22.3763 6.07815 22.7749 6.3075V6.06723C22.7749 5.70136 22.6329 5.39557 22.3435 5.13891C22.0541 4.88226 21.7156 4.75667 21.3279 4.75667C20.7436 4.75667 20.2794 5.0024 19.9408 5.49932L19.018 4.92049C19.5258 4.1833 20.2794 3.81743 21.2732 3.81743ZM19.919 7.86925C19.919 8.14229 20.0337 8.37163 20.2685 8.55184C20.4978 8.73204 20.7709 8.82487 21.0821 8.82487C21.5244 8.82487 21.9176 8.66105 22.2616 8.33341C22.6056 8.00577 22.7804 7.62352 22.7804 7.18121C22.4527 6.92456 21.9995 6.7935 21.4152 6.7935C20.9893 6.7935 20.6344 6.89725 20.3504 7.0993C20.061 7.31226 19.919 7.56892 19.919 7.86925Z" fill="#3C4043"/>
<path d="M29.4807 3.99769L25.9858 12.0358H24.9046L26.2043 9.22355L23.8999 3.99769H25.0412L26.7012 8.00582H26.723L28.3394 3.99769H29.4807Z" fill="#3C4043"/>
<path d="M10.0806 5.614C10.0806 5.27216 10.05 4.94506 9.99322 4.63053H5.59849V6.43255L8.1295 6.4331C8.02684 7.03268 7.69647 7.5438 7.19027 7.88455V9.05368H8.69686C9.57657 8.23949 10.0806 7.03596 10.0806 5.614Z" fill="#4285F4"/>
<path d="M7.1908 7.8846C6.77143 8.16746 6.23137 8.33292 5.59957 8.33292C4.37912 8.33292 3.34378 7.51055 2.973 6.40203H1.4189V7.60775C2.18885 9.13564 3.77135 10.1841 5.59957 10.1841C6.86316 10.1841 7.92471 9.76854 8.6974 9.05319L7.1908 7.8846Z" fill="#34A853"/>
<path d="M2.82661 5.5075C2.82661 5.19624 2.87848 4.89536 2.97295 4.6125V3.40678H1.41885C1.1005 4.03858 0.921387 4.75175 0.921387 5.5075C0.921387 6.26326 1.10104 6.97642 1.41885 7.60822L2.97295 6.40251C2.87848 6.11965 2.82661 5.81876 2.82661 5.5075Z" fill="#FABB05"/>
<path d="M5.59957 2.68161C6.28925 2.68161 6.90685 2.91915 7.39448 3.38331L8.72961 2.04927C7.91871 1.29406 6.86153 0.830444 5.59957 0.830444C3.77189 0.830444 2.1888 1.87888 1.41885 3.40678L2.97295 4.6125C3.34373 3.50398 4.37912 2.68161 5.59957 2.68161Z" fill="#E94235"/>
</svg>
