<svg width="20" height="20" viewBox="0 0 20 20" fill="none" xmlns="http://www.w3.org/2000/svg">
<path d="M10 0.0394287C8.07164 0.0394287 6.18657 0.611256 4.58319 1.6826C2.97982 2.75394 1.73013 4.27669 0.992179 6.05826C0.254225 7.83984 0.061142 9.80024 0.437348 11.6916C0.813554 13.5829 1.74215 15.3202 3.10571 16.6837C4.46928 18.0473 6.20656 18.9759 8.09787 19.3521C9.98919 19.7283 11.9496 19.5352 13.7312 18.7973C15.5127 18.0593 17.0355 16.8096 18.1068 15.2062C19.1782 13.6029 19.75 11.7178 19.75 9.78943C19.7473 7.20441 18.7192 4.72604 16.8913 2.89815C15.0634 1.07026 12.585 0.0421585 10 0.0394287ZM14.2806 8.07005L9.03063 13.3201C8.96097 13.3898 8.87826 13.4451 8.78721 13.4828C8.69616 13.5206 8.59857 13.54 8.5 13.54C8.40144 13.54 8.30385 13.5206 8.2128 13.4828C8.12175 13.4451 8.03903 13.3898 7.96938 13.3201L5.71938 11.0701C5.57865 10.9293 5.49959 10.7385 5.49959 10.5394C5.49959 10.3404 5.57865 10.1495 5.71938 10.0088C5.86011 9.86807 6.05098 9.78901 6.25 9.78901C6.44903 9.78901 6.6399 9.86807 6.78063 10.0088L8.5 11.7291L13.2194 7.0088C13.2891 6.93912 13.3718 6.88385 13.4628 6.84613C13.5539 6.80842 13.6515 6.78901 13.75 6.78901C13.8486 6.78901 13.9461 6.80842 14.0372 6.84613C14.1282 6.88385 14.2109 6.93912 14.2806 7.0088C14.3503 7.07849 14.4056 7.16121 14.4433 7.25226C14.481 7.3433 14.5004 7.44088 14.5004 7.53943C14.5004 7.63797 14.481 7.73556 14.4433 7.8266C14.4056 7.91765 14.3503 8.00037 14.2806 8.07005Z" fill="#01AB31"/>
</svg>
