<svg width="157" height="37" viewBox="0 0 157 37" fill="none" xmlns="http://www.w3.org/2000/svg">
<g clip-path="url(#clip0_30_4520)">
<path d="M141.659 11.7933L141.368 11.8855C140.234 9.54204 138.615 7.67651 136.509 6.28893C134.436 4.90133 131.829 4.20752 128.687 4.20752C126.938 4.20752 125.27 4.56211 123.683 5.27129C122.096 5.94972 120.703 6.92104 119.505 8.18525C118.339 9.41865 117.399 10.9142 116.687 12.6718C115.974 14.4294 115.618 16.372 115.618 18.4997C115.618 20.6273 115.974 22.5699 116.687 24.3275C117.399 26.0851 118.339 27.596 119.505 28.8603C120.703 30.0937 122.096 31.0496 123.683 31.728C125.27 32.4063 126.938 32.7455 128.687 32.7455C131.797 32.7455 134.323 32.283 136.266 31.3579C138.242 30.4021 139.91 28.9528 141.27 27.0102L141.562 27.1024L141.465 30.0626C140.72 30.8026 139.862 31.4656 138.89 32.0514C137.919 32.6065 136.866 33.0844 135.732 33.4853C134.631 33.8553 133.481 34.1328 132.283 34.3178C131.084 34.5339 129.886 34.6419 128.688 34.6419C126.194 34.6419 123.813 34.2564 121.546 33.4855C119.279 32.7146 117.287 31.6354 115.57 30.2478C113.853 28.8294 112.493 27.1335 111.489 25.16C110.485 23.1558 109.983 20.9356 109.983 18.4996C109.983 16.0636 110.485 13.8589 111.489 11.8855C112.493 9.88116 113.853 8.1698 115.57 6.75142C117.287 5.33298 119.278 4.25374 121.546 3.51369C123.813 2.74279 126.194 2.35734 128.688 2.35734C129.886 2.35734 131.084 2.44984 132.283 2.63486C133.481 2.81987 134.631 3.11281 135.732 3.51369C136.866 3.88372 137.919 4.36167 138.89 4.94757C139.862 5.5026 140.72 6.15013 141.465 6.89017L141.659 11.7933ZM34.5989 20.6277C34.2428 20.7817 33.9027 20.9822 33.5787 21.2293C33.2546 21.4758 33.0925 21.815 33.0925 22.2469V27.9359C31.5379 30.0636 29.5459 31.7133 27.1167 32.885C24.6875 34.0568 21.9992 34.6427 19.0517 34.6427C16.5578 34.6427 14.1772 34.2572 11.9099 33.4863C9.64265 32.7154 7.65071 31.6362 5.93406 30.2486C4.21743 28.8302 2.85707 27.1343 1.85298 25.1608C0.848941 23.1566 0.346924 20.9364 0.346924 18.5004C0.346924 16.0644 0.848941 13.8597 1.85298 11.8863C2.85707 9.88192 4.21743 8.17056 5.93406 6.75218C7.65071 5.33374 9.64265 4.25451 11.9099 3.51449C14.1771 2.74356 16.5577 2.3581 19.0517 2.3581C20.2501 2.3581 21.4486 2.4506 22.647 2.63561C23.8454 2.82062 24.9952 3.11357 26.0965 3.51445C27.2301 3.88447 28.2827 4.36243 29.2544 4.94832C30.226 5.50335 31.0844 6.15089 31.8294 6.89093L32.024 11.7937L31.7325 11.8859C30.5989 9.54238 28.9794 7.67683 26.8741 6.28925C24.8012 4.90165 22.1939 4.20784 19.0521 4.20784C17.3031 4.20784 15.635 4.56245 14.048 5.27165C12.4609 5.95005 11.0681 6.92136 9.86971 8.18557C8.70367 9.419 7.76441 10.9145 7.0519 12.6721C6.33928 14.4297 5.98297 16.3724 5.98297 18.5C5.98297 20.5968 6.32307 22.524 7.00327 24.2816C7.71586 26.0392 8.65516 27.5501 9.82117 28.8144C11.0195 30.0478 12.4123 31.0191 13.9994 31.7283C15.5865 32.4067 17.2707 32.7459 19.0521 32.7459C22.4206 32.7459 25.3033 32.1292 27.7001 30.8958V22.2465C27.7001 21.815 27.522 21.4758 27.1659 21.2289C26.8419 20.9824 26.5179 20.7819 26.1942 20.6273L26.2386 20.3963C26.4004 20.4245 26.6919 20.4553 27.1132 20.4885C27.5344 20.5167 27.9717 20.5475 28.4249 20.5807H32.6034C32.9921 20.5525 33.3645 20.5218 33.7208 20.4885C34.0769 20.4603 34.3522 20.4296 34.5465 20.3963L34.5989 20.6277ZM69.7889 3.32908C69.4648 3.48307 69.1409 3.68359 68.8172 3.93065C68.4932 4.17714 68.3151 4.63967 68.2831 5.31822C68.2535 6.05827 68.2212 6.99875 68.1863 8.13967C68.1863 9.24976 68.1714 10.514 68.1418 11.9323C68.1418 13.3508 68.127 14.8926 68.0974 16.5577V21.7381C68.0678 23.7423 67.8086 25.4537 67.3198 26.8721C66.8339 28.2905 66.1861 29.4776 65.3764 30.4335C64.5991 31.3895 63.7246 32.1449 62.7529 32.7C61.8136 33.255 60.8743 33.6713 59.935 33.9488C59.0281 34.2573 58.1698 34.4423 57.3601 34.5038C56.5503 34.5963 55.9187 34.6426 55.4653 34.6426C53.6191 34.6426 51.8377 34.4113 50.121 33.9488C48.4044 33.5173 46.8983 32.8081 45.6027 31.8211C44.3071 30.8344 43.2707 29.5547 42.4934 27.9822C41.716 26.4096 41.3273 24.4978 41.3273 22.2468V17.0203V12.2099C41.3273 10.7298 41.3125 9.40384 41.2829 8.23214C41.2829 7.02954 41.2681 6.05823 41.2385 5.31818C41.2088 4.63979 41.0308 4.17726 40.7043 3.93061C40.3802 3.68411 40.0564 3.48359 39.7327 3.32904L39.7771 3.09806C39.9389 3.12626 40.1981 3.15699 40.5548 3.19025C40.9434 3.21845 41.3321 3.24918 41.7208 3.28243C42.142 3.28243 42.5469 3.29653 42.9354 3.32473H44.6844C45.0731 3.29653 45.4779 3.28243 45.899 3.28243C46.3202 3.25423 46.7089 3.2235 47.065 3.19025C47.4537 3.16204 47.7289 3.13132 47.8906 3.09806L47.9351 3.32904C47.579 3.48303 47.2389 3.68355 46.9148 3.93061C46.6233 4.1771 46.4613 4.63963 46.4287 5.31818C46.399 6.05823 46.3668 7.02954 46.3318 8.23214V22.2468C46.3318 25.6078 47.1577 28.09 48.8096 29.6935C50.4614 31.2969 52.9068 32.0986 56.1458 32.0986C57.085 32.0986 58.1539 31.9906 59.3524 31.7746C60.5508 31.5281 61.6682 31.0347 62.7046 30.2945C63.7735 29.5544 64.6642 28.506 65.3768 27.1493C66.1217 25.7925 66.4942 23.9887 66.4942 21.7377C66.4942 19.3017 66.4794 17.2204 66.4498 15.4936C66.4498 13.736 66.435 12.2405 66.4053 11.0071C66.4053 9.74282 66.3905 8.66358 66.3609 7.76933C66.3313 6.87514 66.299 6.05801 66.264 5.31795C66.2344 4.63955 66.0563 4.17702 65.7299 3.93037C65.4058 3.68387 65.0819 3.48334 64.7582 3.32876L64.8027 3.09782C65.1587 3.15928 65.5636 3.22104 66.0172 3.28311C66.4705 3.31131 66.8915 3.32541 67.2804 3.32541C67.6365 3.32541 68.0414 3.31131 68.495 3.28311C68.9808 3.22165 69.4019 3.15989 69.7582 3.09782L69.7889 3.32908ZM105.043 11.7933L104.752 11.8855C103.618 9.54204 101.998 7.67651 99.8932 6.28893C97.8202 4.90133 95.2129 4.20752 92.0711 4.20752C90.3221 4.20752 88.654 4.56211 87.0669 5.27129C85.4798 5.94972 84.0871 6.92104 82.8887 8.18525C81.7227 9.41865 80.7834 10.9142 80.0708 12.6718C79.3583 14.4294 79.002 16.3721 79.002 18.4997C79.002 20.6273 79.3583 22.5699 80.0709 24.3275C80.7835 26.0851 81.7228 27.596 82.8888 28.8603C84.0871 30.0937 85.4799 31.0496 87.067 31.728C88.6541 32.4063 90.3221 32.7455 92.0712 32.7455C95.1805 32.7455 97.7069 32.283 99.6503 31.3579C101.626 30.4021 103.294 28.9528 104.654 27.0102L104.946 27.1024L104.849 30.0626C104.104 30.8026 103.246 31.4656 102.274 32.0514C101.302 32.6064 100.25 33.0844 99.116 33.4853C98.0148 33.8553 96.865 34.1328 95.6665 34.3178C94.4681 34.5338 93.2698 34.6419 92.0714 34.6419C89.5774 34.6419 87.1967 34.2564 84.9295 33.4855C82.6623 32.7146 80.6703 31.6354 78.9537 30.2478C77.237 28.8294 75.8767 27.1335 74.8727 25.16C73.8686 23.1557 73.3665 20.9356 73.3665 18.4996C73.3665 16.0636 73.8686 13.8589 74.8727 11.8855C75.8767 9.88112 77.237 8.16976 78.9537 6.75138C80.6703 5.33294 82.6623 4.2537 84.9295 3.51365C87.1968 2.74275 89.5774 2.3573 92.0714 2.3573C93.2698 2.3573 94.4682 2.44981 95.6666 2.63482C96.865 2.81983 98.0148 3.11277 99.116 3.51365C100.25 3.88368 101.302 4.36163 102.274 4.94753C103.246 5.50256 104.104 6.15009 104.849 6.89013L105.043 11.7933ZM156.302 33.856C156.141 33.8278 155.866 33.797 155.477 33.7638C155.121 33.7638 154.732 33.7497 154.311 33.7215C153.89 33.7215 153.485 33.7074 153.096 33.6792H150.181C149.793 33.7074 149.404 33.7381 149.015 33.7714C148.659 33.7996 148.384 33.8303 148.19 33.8635L148.145 33.6782C148.469 33.5242 148.793 33.3237 149.117 33.0766C149.441 32.8302 149.619 32.3676 149.651 31.6891C149.681 30.949 149.696 30.1782 149.696 29.3764C149.725 28.5747 149.74 27.665 149.74 26.6475V23.1785V18.507V13.8355V10.3203C149.74 9.30269 149.725 8.40846 149.696 7.63756C149.696 6.83585 149.681 6.06497 149.651 5.32493C149.621 4.64653 149.443 4.184 149.117 3.93735C148.793 3.65984 148.469 3.44407 148.145 3.29005L148.19 3.1048C148.384 3.16626 148.659 3.21251 149.015 3.24356C149.404 3.24356 149.793 3.25766 150.181 3.28586C150.603 3.31406 151.008 3.32817 151.396 3.32817H153.096C153.485 3.29996 153.89 3.28586 154.311 3.28586C154.732 3.25766 155.121 3.22693 155.477 3.19368C155.866 3.16548 156.141 3.13475 156.302 3.10149L156.347 3.28682C155.991 3.44081 155.651 3.65656 155.327 3.93408C155.035 4.18057 154.873 4.6431 154.841 5.32166C154.811 6.0617 154.779 6.83257 154.744 7.63429V29.3732C154.773 30.1749 154.806 30.9458 154.841 31.6858C154.87 32.3642 155.032 32.8267 155.327 33.0734C155.651 33.3199 155.991 33.5204 156.347 33.6749L156.302 33.856Z" fill="white"/>
</g>
<defs>
<clipPath id="clip0_30_4520">
<rect width="156" height="36" fill="white" transform="translate(0.346924 0.5)"/>
</clipPath>
</defs>
</svg>
