<svg width="15" height="14" viewBox="0 0 15 14" fill="none" xmlns="http://www.w3.org/2000/svg">
<path d="M7.50076 1.41669C9.30947 1.41669 9.52366 1.42346 10.2382 1.45604C10.6678 1.4613 11.0933 1.54019 11.4962 1.68927C11.7884 1.80196 12.0538 1.97459 12.2753 2.19604C12.4967 2.4175 12.6694 2.68287 12.782 2.97508C12.9311 3.37802 13.01 3.80354 13.0153 4.23314C13.0475 4.94766 13.0546 5.16185 13.0546 6.97056C13.0546 8.77927 13.0479 8.99346 13.0153 9.70798C13.01 10.1376 12.9311 10.5631 12.782 10.966C12.6694 11.2583 12.4967 11.5236 12.2753 11.7451C12.0538 11.9665 11.7884 12.1392 11.4962 12.2519C11.0933 12.4009 10.6678 12.4798 10.2382 12.4851C9.52398 12.5173 9.30979 12.5244 7.50076 12.5244C5.69172 12.5244 5.47753 12.5177 4.76334 12.4851C4.33373 12.4798 3.90821 12.4009 3.50527 12.2519C3.21307 12.1392 2.94769 11.9665 2.72624 11.7451C2.50479 11.5236 2.33216 11.2583 2.21947 10.966C2.07038 10.5631 1.9915 10.1376 1.98624 9.70798C1.95398 8.99346 1.94689 8.77927 1.94689 6.97056C1.94689 5.16185 1.95366 4.94766 1.98624 4.23314C1.9915 3.80354 2.07038 3.37802 2.21947 2.97508C2.33216 2.68287 2.50479 2.4175 2.72624 2.19604C2.94769 1.97459 3.21307 1.80196 3.50527 1.68927C3.90821 1.54019 4.33373 1.4613 4.76334 1.45604C5.47785 1.42379 5.69205 1.41669 7.50076 1.41669V1.41669ZM7.50076 0.196045C5.66205 0.196045 5.43043 0.203787 4.70785 0.23669C4.14561 0.247873 3.58934 0.354329 3.06269 0.551529C2.61092 0.721744 2.20172 0.988485 1.86366 1.33314C1.51869 1.67133 1.25172 2.08075 1.0814 2.53282C0.884201 3.05946 0.777746 3.61574 0.766563 4.17798C0.734304 4.89992 0.726562 5.13153 0.726562 6.97024C0.726562 8.80895 0.734304 9.04056 0.767208 9.76314C0.778391 10.3254 0.884847 10.8817 1.08205 11.4083C1.25218 11.8603 1.51892 12.2697 1.86366 12.608C2.20191 12.9527 2.61133 13.2195 3.06334 13.3896C3.58998 13.5868 4.14626 13.6932 4.7085 13.7044C5.43108 13.7367 5.66172 13.7451 7.5014 13.7451C9.34108 13.7451 9.57172 13.7373 10.2943 13.7044C10.8565 13.6932 11.4128 13.5868 11.9395 13.3896C12.3893 13.2152 12.7978 12.9489 13.1389 12.6076C13.48 12.2663 13.746 11.8576 13.9201 11.4077C14.1173 10.881 14.2238 10.3247 14.235 9.76249C14.2672 9.04056 14.275 8.80895 14.275 6.97024C14.275 5.13153 14.2672 4.89992 14.2343 4.17733C14.2231 3.61509 14.1167 3.05882 13.9195 2.53217C13.7493 2.08017 13.4826 1.67075 13.1379 1.3325C12.7996 0.987761 12.3902 0.721015 11.9382 0.550884C11.4115 0.353684 10.8553 0.247228 10.293 0.236045C9.57108 0.203787 9.33947 0.196045 7.50076 0.196045Z" fill="black"/>
<path d="M7.50215 3.49292C6.81412 3.49292 6.14155 3.69694 5.56948 4.07919C4.99741 4.46143 4.55154 5.00473 4.28824 5.64039C4.02494 6.27604 3.95605 6.97549 4.09028 7.65029C4.22451 8.3251 4.55582 8.94494 5.04233 9.43145C5.52884 9.91795 6.14868 10.2493 6.82349 10.3835C7.49829 10.5177 8.19774 10.4488 8.83339 10.1855C9.46904 9.92224 10.0123 9.47637 10.3946 8.9043C10.7768 8.33223 10.9809 7.65965 10.9809 6.97163C10.9809 6.04902 10.6144 5.1642 9.96197 4.51181C9.30958 3.85943 8.42476 3.49292 7.50215 3.49292ZM7.50215 9.22969C7.05555 9.22969 6.61897 9.09726 6.24764 8.84914C5.8763 8.60102 5.58688 8.24836 5.41597 7.83575C5.24506 7.42315 5.20034 6.96912 5.28747 6.5311C5.3746 6.09308 5.58966 5.69073 5.90546 5.37494C6.22125 5.05914 6.6236 4.84408 7.06162 4.75695C7.49964 4.66983 7.95367 4.71454 8.36627 4.88545C8.77888 5.05636 9.13154 5.34578 9.37966 5.71712C9.62778 6.08845 9.76021 6.52503 9.76021 6.97163C9.76021 7.57051 9.52231 8.14485 9.09884 8.56832C8.67537 8.99179 8.10102 9.22969 7.50215 9.22969V9.22969Z" fill="black"/>
<path d="M11.1176 4.16755C11.5665 4.16755 11.9305 3.80361 11.9305 3.35465C11.9305 2.9057 11.5665 2.54175 11.1176 2.54175C10.6686 2.54175 10.3047 2.9057 10.3047 3.35465C10.3047 3.80361 10.6686 4.16755 11.1176 4.16755Z" fill="black"/>
</svg>
