<svg width="27" height="16" viewBox="0 0 27 16" fill="none" xmlns="http://www.w3.org/2000/svg">
<path d="M16.7698 1.81812H9.90651V14.1516H16.7698V1.81812Z" fill="#FF5F00"/>
<path d="M10.3423 7.98486C10.3412 6.79706 10.6104 5.62457 11.1294 4.55617C11.6485 3.48777 12.4038 2.55145 13.3382 1.81811C12.1811 0.908592 10.7914 0.342976 9.32803 0.185911C7.86466 0.0288459 6.38661 0.286663 5.06284 0.929906C3.73907 1.57315 2.62298 2.57586 1.84214 3.82343C1.0613 5.071 0.647217 6.51308 0.647217 7.98486C0.647217 9.45664 1.0613 10.8987 1.84214 12.1463C2.62298 13.3939 3.73907 14.3966 5.06284 15.0398C6.38661 15.6831 7.86466 15.9409 9.32803 15.7838C10.7914 15.6268 12.1811 15.0611 13.3382 14.1516C12.4038 13.4183 11.6485 12.482 11.1295 11.4136C10.6104 10.3452 10.3413 9.17267 10.3423 7.98486Z" fill="#EB001B"/>
<path d="M26.0287 7.98486C26.0288 9.45662 25.6148 10.8987 24.834 12.1463C24.0532 13.3938 22.9371 14.3966 21.6134 15.0398C20.2896 15.6831 18.8116 15.9409 17.3483 15.7838C15.8849 15.6268 14.4953 15.0611 13.3382 14.1516C14.2717 13.4175 15.0265 12.4811 15.5454 11.4128C16.0644 10.3446 16.334 9.17248 16.334 7.98486C16.334 6.79724 16.0644 5.62513 15.5454 4.55689C15.0265 3.48866 14.2717 2.5522 13.3382 1.81811C14.4953 0.90859 15.8849 0.342972 17.3483 0.185909C18.8116 0.0288459 20.2896 0.286674 21.6134 0.929924C22.9371 1.57317 24.0532 2.57589 24.834 3.82346C25.6148 5.07102 26.0288 6.5131 26.0287 7.98486Z" fill="#F79E1B"/>
<path d="M25.2804 12.8453V12.5928H25.3822V12.5414H25.1229V12.5928H25.2248V12.8453H25.2804ZM25.7838 12.8453V12.5409H25.7044L25.6129 12.7503L25.5215 12.5409H25.442V12.8453H25.4981V12.6157L25.5838 12.8137H25.642L25.7278 12.6152V12.8453H25.7838Z" fill="#F79E1B"/>
</svg>
