<svg width="36" height="10" viewBox="0 0 36 10" fill="none" xmlns="http://www.w3.org/2000/svg">
<path fill-rule="evenodd" clip-rule="evenodd" d="M4.92557 0.615722H2.23808C2.05417 0.615722 1.89776 0.749368 1.86908 0.930837L0.782116 7.82158C0.760512 7.95759 0.865824 8.08014 1.00376 8.08014H2.2868C2.4707 8.08014 2.62712 7.9465 2.65579 7.76466L2.94896 5.90615C2.97724 5.72413 3.13403 5.59067 3.31756 5.59067H4.16833C5.93868 5.59067 6.96033 4.73405 7.22729 3.03664C7.3475 2.29404 7.23239 1.71054 6.8845 1.30178C6.50261 0.853194 5.82502 0.615722 4.92557 0.615722ZM5.23563 3.13247C5.08869 4.09673 4.35186 4.09673 3.63941 4.09673H3.23385L3.51837 2.29586C3.53526 2.18712 3.62957 2.10693 3.73961 2.10693H3.92548C4.41079 2.10693 4.86865 2.10693 5.10524 2.3835C5.24618 2.5486 5.28946 2.79372 5.23563 3.13247ZM12.9592 3.10156H11.6722C11.5625 3.10156 11.4678 3.18175 11.4509 3.29067L11.3939 3.65051L11.3039 3.52014C11.0253 3.11574 10.4041 2.98064 9.78398 2.98064C8.3617 2.98064 7.1471 4.05764 6.9105 5.56848C6.78757 6.322 6.96233 7.0426 7.38987 7.54519C7.78213 8.00723 8.34333 8.19979 9.01092 8.19979C10.1568 8.19979 10.7924 7.463 10.7924 7.463L10.7349 7.82067C10.7133 7.9574 10.8185 8.07996 10.9557 8.07996H12.115C12.2994 8.07996 12.4549 7.94631 12.484 7.76448L13.1796 3.36013C13.2016 3.22466 13.0966 3.10156 12.9592 3.10156ZM11.1652 5.60612C11.041 6.34127 10.4574 6.83477 9.71324 6.83477C9.33953 6.83477 9.04074 6.71494 8.84907 6.48783C8.65885 6.26236 8.58647 5.94124 8.64703 5.58376C8.76305 4.85479 9.35644 4.34529 10.0893 4.34529C10.4547 4.34529 10.7518 4.46657 10.9475 4.69568C11.1435 4.92716 11.2214 5.25009 11.1652 5.60612ZM18.5201 3.10138H19.8134C19.9945 3.10138 20.1002 3.30449 19.9973 3.45304L15.6959 9.66118C15.6262 9.76173 15.5115 9.82156 15.3889 9.82156H14.0972C13.9153 9.82156 13.8091 9.61681 13.9144 9.46789L15.2538 7.57756L13.8293 3.39758C13.78 3.2523 13.8873 3.10138 14.0419 3.10138H15.3127C15.4778 3.10138 15.6235 3.20975 15.6711 3.36776L16.4271 5.89233L18.2109 3.26521C18.2807 3.16266 18.3968 3.10138 18.5201 3.10138Z" fill="#253B80"/>
<path fill-rule="evenodd" clip-rule="evenodd" d="M32.5426 7.82096L33.6456 0.804214C33.6625 0.695297 33.7569 0.61511 33.8665 0.614746H35.1082C35.2453 0.614746 35.3506 0.737664 35.329 0.873675L34.2413 7.76405C34.2129 7.94588 34.0566 8.07953 33.8723 8.07953H32.7634C32.6263 8.07953 32.521 7.95697 32.5426 7.82096ZM24.0957 0.615107H21.4077C21.2242 0.615107 21.0678 0.748754 21.0391 0.930223L19.9521 7.82096C19.9305 7.95697 20.0358 8.07953 20.1731 8.07953H21.5523C21.6805 8.07953 21.7901 7.98606 21.8101 7.85878L22.1186 5.90553C22.1469 5.72352 22.3037 5.59006 22.4872 5.59006H23.3375C25.1082 5.59006 26.1297 4.73344 26.3969 3.03603C26.5174 2.29342 26.4016 1.70992 26.0539 1.30116C25.6722 0.852582 24.9951 0.615107 24.0957 0.615107ZM24.4057 3.13186C24.2592 4.09612 23.5223 4.09612 22.8094 4.09612H22.4043L22.6892 2.29524C22.7061 2.18651 22.7996 2.10632 22.91 2.10632H23.0958C23.5809 2.10632 24.0391 2.10632 24.2755 2.38289C24.4167 2.54799 24.4596 2.7931 24.4057 3.13186ZM32.1285 3.10095H30.8425C30.7319 3.10095 30.6381 3.18113 30.6215 3.29005L30.5646 3.6499L30.4742 3.51953C30.1956 3.11513 29.5748 2.98003 28.9546 2.98003C27.5324 2.98003 26.3181 4.05702 26.0815 5.56787C25.959 6.32139 26.133 7.04199 26.5605 7.54457C26.9535 8.00661 27.514 8.19918 28.1816 8.19918C29.3274 8.19918 29.9628 7.46239 29.9628 7.46239L29.9056 7.82005C29.8839 7.95679 29.9892 8.07935 30.1272 8.07935H31.286C31.4695 8.07935 31.6259 7.9457 31.6546 7.76386L32.3506 3.35951C32.3719 3.22405 32.2666 3.10095 32.1285 3.10095ZM30.3347 5.60551C30.2113 6.34066 29.627 6.83416 28.8826 6.83416C28.5096 6.83416 28.2103 6.71433 28.0185 6.48722C27.8282 6.26175 27.7568 5.94063 27.8166 5.58315C27.9332 4.85418 28.5258 4.34468 29.2587 4.34468C29.6242 4.34468 29.9212 4.46596 30.1171 4.69507C30.3138 4.92655 30.3917 5.24948 30.3347 5.60551Z" fill="#179BD7"/>
</svg>
