<svg width="25" height="25" viewBox="0 0 25 25" fill="none" xmlns="http://www.w3.org/2000/svg">
<path d="M21.875 12.7126C21.875 13.011 21.7565 13.2972 21.5455 13.5081C21.3345 13.7191 21.0484 13.8376 20.75 13.8376H13.625V20.9626C13.625 21.261 13.5065 21.5472 13.2955 21.7581C13.0845 21.9691 12.7984 22.0876 12.5 22.0876C12.2016 22.0876 11.9155 21.9691 11.7045 21.7581C11.4935 21.5472 11.375 21.261 11.375 20.9626V13.8376H4.25C3.95163 13.8376 3.66548 13.7191 3.4545 13.5081C3.24353 13.2972 3.125 13.011 3.125 12.7126C3.125 12.4143 3.24353 12.1281 3.4545 11.9172C3.66548 11.7062 3.95163 11.5876 4.25 11.5876H11.375V4.46265C11.375 4.16428 11.4935 3.87813 11.7045 3.66715C11.9155 3.45617 12.2016 3.33765 12.5 3.33765C12.7984 3.33765 13.0845 3.45617 13.2955 3.66715C13.5065 3.87813 13.625 4.16428 13.625 4.46265V11.5876H20.75C21.0484 11.5876 21.3345 11.7062 21.5455 11.9172C21.7565 12.1281 21.875 12.4143 21.875 12.7126Z" fill="black"/>
</svg>
