<svg width="195" height="33" viewBox="0 0 195 33" fill="none" xmlns="http://www.w3.org/2000/svg">
<g clip-path="url(#clip0_30_4522)">
<path fill-rule="evenodd" clip-rule="evenodd" d="M0.779541 1.40175L3.71171 4.70848V28.9106L1.53852 32.0774L14.848 32.0978L12.449 29.1839L12.1999 20.4679L25.0331 20.5375C28.9229 19.2425 32.9216 16.4815 33.1137 10.8996C33.0524 5.49032 29.7498 2.02086 25.9155 1.33061L0.779541 1.40175ZM11.7244 2.94953V18.4977L21.5706 18.5689C23.811 16.7623 25.5094 15.3787 25.4414 11.0411C25.4093 7.50433 24.6627 4.42011 21.3668 2.95029L11.7244 2.94953ZM39.2732 1.2254L42.2053 4.53289V28.735L40.0322 31.9033L53.3409 31.9222L50.9419 29.0083L50.6928 20.2923H50.7462L64.4961 32.0206L75.907 31.9275L65.4925 22.9193H56.7982L53.7339 20.3089L63.526 20.3619C67.4158 19.0669 71.4138 16.3059 71.6066 10.724C71.546 5.31548 68.2435 1.84527 64.4084 1.15577L39.2732 1.2254ZM50.2173 2.77318V18.3214L60.0635 18.3925C62.3046 16.5859 64.0023 15.2024 63.9343 10.864C63.9022 7.32798 63.1557 4.24301 59.8597 2.77318H50.2173ZM86.8928 1.19059H98.3687L113.307 28.9106C113.954 31.051 115.887 30.7869 117.178 31.7254H102.714L104.888 31.0457L104.752 28.9818L101.017 23.0011L88.3187 23.0722L85.6027 28.8418C85.5121 29.498 84.8101 29.996 85.331 30.8111L86.35 31.7958L80.1029 31.655L82.8196 30.8111L93.0719 9.21181V7.73365L88.7402 1.95502L86.8928 1.19059ZM89.1215 21.0976L94.3956 11.1123L99.8866 21.0416L89.1215 21.0976ZM164.494 1.25113H175.97L190.909 28.9712C191.555 31.1116 193.489 30.8475 194.78 31.786H180.315L182.488 31.1048L182.353 29.0408L178.618 23.0616L165.92 23.1328L163.204 28.9008C163.113 29.5585 162.412 30.0565 162.932 30.8717L163.951 31.8563L157.705 31.7156L160.421 30.8717L170.674 9.27235V7.79345L166.342 2.01557L164.494 1.25113ZM166.723 21.1589L171.997 11.1736L177.489 21.1013L166.723 21.1589ZM121.147 0.902222L141.59 1.01499C148.173 2.55672 152.362 6.57868 153.661 13.5948L153.606 19.0669C152.406 25.3186 148.473 29.6319 141.536 31.8155L121.038 31.873L121.035 31.2107C124.151 30.9754 124.4 30.6196 124.408 28.7699V3.83506C124.373 2.46741 124.1 1.61594 121.092 1.52209L121.147 0.902222ZM132.767 3.03581L132.747 30.0134C135.444 30.0225 137.783 30.2753 139.104 29.6009C142.098 28.2333 143.489 26.133 143.616 24.1598L143.545 8.23016C143.546 5.6818 140.78 3.88274 139.183 3.41425C138.041 2.99116 135.763 2.97375 132.767 3.03581Z" fill="white" stroke="white" stroke-width="1.02419" stroke-miterlimit="2.613"/>
</g>
<defs>
<clipPath id="clip0_30_4522">
<rect width="194" height="32" fill="white" transform="translate(0.779541 0.5)"/>
</clipPath>
</defs>
</svg>
