<svg width="12" height="10" viewBox="0 0 12 10" fill="none" xmlns="http://www.w3.org/2000/svg">
<path d="M11.7071 1.95259C11.2881 2.13882 10.8458 2.25521 10.3802 2.32505C10.8458 2.0457 11.2183 1.6034 11.3812 1.06798C10.9389 1.32405 10.4501 1.51028 9.91465 1.62668C9.49562 1.18438 8.89037 0.905029 8.23856 0.905029C6.98149 0.905029 5.95721 1.92931 5.95721 3.18637C5.95721 3.3726 5.98049 3.53556 6.02705 3.69851C4.14145 3.6054 2.44208 2.69751 1.30141 1.30077C1.11518 1.64996 0.998783 2.02242 0.998783 2.44144C0.998783 3.23293 1.39453 3.9313 2.02306 4.35032C1.6506 4.32704 1.30141 4.23393 0.975504 4.07098V4.09425C0.975504 5.21165 1.76699 6.14281 2.81455 6.35232C2.62831 6.39888 2.4188 6.42216 2.20929 6.42216C2.06962 6.42216 1.90666 6.39888 1.76699 6.3756C2.06962 7.28348 2.90766 7.95857 3.90866 7.95857C3.11717 8.56383 2.13945 8.93629 1.06862 8.93629C0.882388 8.93629 0.696156 8.93629 0.533203 8.91301C1.55748 9.56482 2.74471 9.93729 4.04833 9.93729C8.26184 9.93729 10.5665 6.44543 10.5665 3.41916C10.5665 3.32605 10.5665 3.20965 10.5665 3.11654C11.0088 2.81391 11.4045 2.41817 11.7071 1.95259Z" fill="black"/>
</svg>
