<svg width="167" height="35" viewBox="0 0 167 35" fill="none" xmlns="http://www.w3.org/2000/svg">
<path fill-rule="evenodd" clip-rule="evenodd" d="M150.179 1.57338H166.482V4.17109C166.008 4.01208 165.513 3.93012 165.013 3.92833H155.642V16.0669H164.758C165.413 16.0669 165.996 15.995 166.481 15.8725V18.4588C166.068 18.362 165.499 18.3129 164.794 18.3129H155.642V30.8643H164.733C165.232 30.8643 165.826 30.7917 166.481 30.6337V33.4257H150.203C150.333 32.9347 150.399 32.4288 150.398 31.9208V3.11463C150.398 2.48389 150.325 1.96208 150.179 1.57338ZM146.405 9.83991L141.695 9.80432C141.464 7.15749 139.947 4.59538 136.609 4.12339C129.459 3.47984 127.444 11.3328 127.626 17.0749C127.809 22.6099 128.694 31.1192 136.075 31.1192C139.171 31.1192 142.144 27.9384 142.047 25.256L146.405 25.2204C146.089 30.7554 139.741 33.9596 136.718 34.0693C126.389 34.4217 122.066 27.5383 121.848 17.717C121.654 8.82119 125.296 0.917725 135.504 0.917725C144.244 1.03946 145.931 6.21067 146.405 9.83991ZM72.9408 29.8079L76.0611 27.1981C77.687 29.8812 79.0225 31.1064 82.2517 31.1064C85.5286 31.1064 88.285 29.1159 88.285 25.5963C88.285 23.86 87.5802 22.4397 86.1849 21.3719C85.5528 20.8736 83.951 20.0122 81.4259 18.8105C77.6507 17.0023 73.9731 14.6466 73.9731 9.91324C73.9731 3.94043 79.0467 1.30642 84.3995 1.11136C87.5681 0.990338 91.5014 2.73947 93.091 4.70501L89.9231 7.14467C89.3581 6.09027 88.5181 5.20855 87.4923 4.59313C86.4665 3.9777 85.2932 3.65154 84.0969 3.64927C80.0541 3.64927 76.8498 8.33496 80.2 11.5641C81.0493 12.3892 82.7863 13.4086 85.4324 14.6224C89.6561 16.6015 93.2612 18.9678 93.2612 24.2003C93.2612 26.0085 92.7878 27.6957 91.853 29.2376C89.9722 32.3451 86.8278 33.8991 82.4339 33.8991C77.3838 33.8991 76.3892 32.7459 72.9408 29.8079ZM28.4893 1.57338H44.7782V4.17109C44.3051 4.01214 43.8094 3.93018 43.3103 3.92833H33.9396V16.0669H43.0554C43.7111 16.0669 44.2941 15.995 44.7789 15.8725V18.4588C44.366 18.362 43.7958 18.3129 43.1046 18.3129H33.9396V30.8643H43.0312C43.5289 30.8643 44.124 30.7917 44.7789 30.6337V33.4257H28.5143C28.6332 32.9329 28.6941 32.4278 28.6958 31.9208V3.11463C28.6958 2.48389 28.6225 1.96208 28.4893 1.57338ZM0 1.57338H5.92368V1.86526C5.92368 2.13222 6.0084 2.48389 6.15434 2.9331L14.5049 28.0723L23.0754 2.82347C23.2085 2.39918 23.2818 1.98628 23.2818 1.57338H26.1586C25.8674 2.0831 25.6489 2.53302 25.515 2.9331L15.7308 32.1272C15.6339 32.4063 15.5492 32.8434 15.4766 33.4264H10.6208C10.5474 32.9851 10.4379 32.5506 10.2933 32.1272L0.704065 3.16375C0.482555 2.62959 0.251627 2.09939 0.0113903 1.57338H0ZM62.9145 18.1798C66.7986 17.4145 69.7729 14.4409 69.7729 10.1923C69.7729 4.61958 65.1114 1.57267 59.8918 1.57267H50.3509C50.4841 2.05889 50.5574 2.56861 50.5574 3.10253V31.8951C50.5574 32.5145 50.4841 33.0363 50.3509 33.425H56.0319C55.8929 32.927 55.8235 32.4122 55.8254 31.8951V18.6653L57.6457 18.8596L67.1631 33.425H72.8803L62.9145 18.1798ZM61.9314 15.7522C60.8998 16.4798 59.6611 16.8435 58.2409 16.8435H55.8133V3.89345H57.986C59.8441 3.89345 61.2878 4.35404 62.32 5.27595C63.7282 6.55167 64.4443 8.27516 64.4443 10.4358C64.4443 12.7665 63.6064 14.5391 61.9314 15.7529M120.901 32.103L110.293 2.62983C110.175 2.28906 110.105 1.93345 110.086 1.57338H105.497C105.497 1.94997 105.436 2.35006 105.29 2.75086L95.0096 32.103C94.875 32.5266 94.6572 32.9644 94.366 33.4257H97.3275C97.3161 32.9402 97.3766 32.491 97.5105 32.103L100.556 23.4471H112.27L115.281 32.1037C115.439 32.5757 115.511 33.0128 115.511 33.4257H121.654C121.301 32.9281 121.047 32.4789 120.901 32.103ZM101.358 21.1042L106.31 6.72038L111.397 21.1042H101.358Z" fill="white"/>
</svg>
