<svg width="33" height="12" viewBox="0 0 33 12" fill="none" xmlns="http://www.w3.org/2000/svg">
<path d="M16.5222 1.09096L14.348 11.2545H11.7189L13.8935 1.09096H16.5222ZM27.5839 7.6536L28.9681 3.83684L29.7646 7.6536H27.5839ZM30.5173 11.2545H32.9493L30.8271 1.09096H28.5824C28.078 1.09096 27.6524 1.38434 27.463 1.83662L23.5185 11.2545H26.2795L26.8276 9.73682H30.2008L30.5173 11.2545ZM23.6555 7.93604C23.6668 5.25353 19.9459 5.10588 19.9716 3.90761C19.9794 3.5425 20.3271 3.1552 21.0866 3.0558C21.4639 3.00658 22.5013 2.96894 23.6793 3.51098L24.1406 1.35571C23.5079 1.12603 22.6937 0.905029 21.6811 0.905029C19.0825 0.905029 17.2534 2.28665 17.238 4.265C17.2216 5.72801 18.5437 6.54444 19.5399 7.03082C20.5642 7.52911 20.9084 7.84822 20.9039 8.29375C20.8971 8.97604 20.0868 9.27649 19.3308 9.28839C18.0087 9.3093 17.2415 8.93164 16.63 8.64663L16.1536 10.8736C16.7677 11.1558 17.9016 11.4009 19.078 11.4134C21.8396 11.4134 23.6465 10.0488 23.6555 7.93604ZM12.7653 1.09096L8.50561 11.2545H5.72596L3.62988 3.14329C3.5025 2.64372 3.39184 2.46101 3.00485 2.2503C2.37339 1.90771 1.32953 1.58571 0.411133 1.38627L0.473861 1.09096H4.94749C5.51751 1.09096 6.03059 1.47055 6.15991 2.1271L7.26714 8.00874L10.003 1.09096H12.7653Z" fill="#1434CB"/>
</svg>
