<svg width="92" height="39" viewBox="0 0 92 39" fill="none" xmlns="http://www.w3.org/2000/svg">
<g clip-path="url(#clip0_30_4518)">
<path d="M87.2467 37.3682L73.7644 0.532195L73.7553 0.507812H73.4892L70.7129 8.07747L65.6584 21.8583L65.6466 21.8473C63.8949 20.3134 61.4234 19.3546 58.3108 18.9975L57.3615 18.9002L58.3033 18.7804C63.4362 17.8651 66.8866 14.6481 66.8866 10.7722C66.8866 5.45729 61.8491 1.74751 54.6332 1.74751H39.6195V2.01661H43.9821V29.4799L33.387 0.532104L33.3775 0.507812H33.1114L30.335 8.07747L19.6266 37.2734L19.5608 37.2809C19.3778 37.3033 19.1968 37.3211 19.0177 37.3346C18.7483 37.3555 18.4805 37.3681 18.2119 37.3681H7.39196L27.9591 2.01652L28.112 1.75085H2.95753V12.6867H3.22443C3.27175 7.36 6.39778 2.01652 13.3045 2.01652H21.6369L0.914307 37.6329H28.8316V27.1557H28.5647C28.5283 31.7984 25.8762 36.2081 20.109 37.2038L19.9257 37.2349L24.3179 25.2547H36.6218L41.0553 37.3682H36.6819V37.633H53.8476V37.3682H49.4554V19.0956H54.5234C59.6808 19.0956 62.6388 21.3821 62.6388 25.3668V28.6081C62.6388 28.9653 62.6633 29.4874 62.6903 29.9241V29.94L59.9663 37.3665H56.4077V37.6313H63.7739V37.3665H60.2536L62.7342 30.6039C62.7393 30.6693 62.7419 30.7087 62.7419 30.7087L62.8103 31.3181L62.8762 31.7212C63.2901 34.2148 64.2512 36.0479 65.732 37.1694L65.9448 37.3228C67.0698 38.099 68.4678 38.4921 70.1022 38.4921C72.267 38.4921 73.7105 37.9565 74.9023 36.696L74.7461 36.55C73.648 37.5558 72.7265 37.9633 71.5719 37.9633C69.6047 37.9633 68.5751 35.5953 68.5751 33.2601V28.7187C68.5856 27.5919 68.4077 26.4712 68.0488 25.4021L67.9999 25.2613V25.2562H76.9994L81.4329 37.3698H77.0595V37.6347H91.9143V37.3698L87.2467 37.3682ZM24.4158 24.9897L30.477 8.46479L36.5247 24.9897H24.4158ZM49.4581 18.8298V2.01652H53.3265C58.4941 2.01652 61.2223 5.06501 61.2223 10.8293C61.2223 16.9598 59.6563 18.8298 54.5234 18.8298H49.4581ZM67.895 24.9897L67.8688 24.9244C67.4689 23.9577 66.8866 23.0758 66.1533 22.3259L65.9 22.0744L65.8729 22.0493L70.8513 8.46479L76.8989 24.9897H67.895Z" fill="white"/>
</g>
<defs>
<clipPath id="clip0_30_4518">
<rect width="91" height="38" fill="white" transform="translate(0.914307 0.5)"/>
</clipPath>
</defs>
</svg>
